{
    "accessors": [
        {
            "bufferView": 0,
            "componentType": 5126,
            "count": 9553,
            "max": [
                0.14596998691558838,
                0.1130780354142189,
                0.17505578696727753
            ],
            "min": [
                -0.14597000181674957,
                0.0,
                -0.17505577206611633
            ],
            "type": "VEC3"
        },
        {
            "bufferView": 1,
            "componentType": 5126,
            "count": 9553,
            "type": "VEC2"
        },
        {
            "bufferView": 2,
            "componentType": 5123,
            "count": 47691,
            "type": "SCALAR"
        }
    ],
    "asset": {
        "generator": "Adobe Creative Cloud",
        "version": "2.0"
    },
    "bufferViews": [
        {
            "buffer": 0,
            "byteLength": 114636
        },
        {
            "buffer": 0,
            "byteLength": 76424,
            "byteOffset": 114636
        },
        {
            "buffer": 0,
            "byteLength": 95382,
            "byteOffset": 191060
        },
        {
            "buffer": 0,
            "byteLength": 7951186,
            "byteOffset": 286444
        }
    ],
    "buffers": [
        {
            "byteLength": 8237630,
            "uri": "MGBlack.bin"
        }
    ],
    "images": [
        {
            "bufferView": 3,
            "mimeType": "image/jpeg",
            "name": "texture 1.JPG"
        }
    ],
    "materials": [
        {
            "alphaMode": "OPAQUE",
            "emissiveFactor": [
                0.0,
                0.0,
                0.0
            ],
            "name": "Material_1",
            "pbrMetallicRoughness": {
                "baseColorFactor": [
                    0.8039215803146362,
                    0.8039215803146362,
                    0.8039215803146362,
                    1.0
                ],
                "baseColorTexture": {
                    "index": 0
                },
                "metallicFactor": 0.0,
                "roughnessFactor": 0.6000000238418579
            }
        }
    ],
    "meshes": [
        {
            "name": "Node_0_primitive",
            "primitives": [
                {
                    "attributes": {
                        "POSITION": 0,
                        "TEXCOORD_0": 1
                    },
                    "indices": 2,
                    "material": 0,
                    "mode": 4
                }
            ]
        }
    ],
    "nodes": [
        {
            "mesh": 0,
            "name": "Node_0_primitive"
        }
    ],
    "scene": 0,
    "scenes": [
        {
            "name": "Scene",
            "nodes": [
                0
            ]
        }
    ],
    "textures": [
        {
            "source": 0
        }
    ]
}
